<svg xmlns="http://www.w3.org/2000/svg" version="1.1" xmlns:xlink="http://www.w3.org/1999/xlink" xmlns:svgjs="http://svgjs.dev/svgjs" width="1000" height="623" viewBox="0 0 1000 623"><g transform="matrix(1,0,0,1,-0.6060606060606233,0.2522267206477409)"><svg viewBox="0 0 396 247" data-background-color="#ffffff" preserveAspectRatio="xMidYMid meet" height="623" width="1000" xmlns="http://www.w3.org/2000/svg" xmlns:xlink="http://www.w3.org/1999/xlink"><defs></defs><g id="tight-bounds" transform="matrix(1,0,0,1,0.2400000000000091,-0.09999999999999432)"><svg viewBox="0 0 395.52 247.2" height="247.2" width="395.52"><g><svg></svg></g><g><svg viewBox="0 0 395.52 247.2" height="247.2" width="395.52"><g transform="matrix(1,0,0,1,75.54432000000001,86.38774423662463)"><svg viewBox="0 0 244.43135999999996 74.42451152675073" height="74.42451152675073" width="244.43135999999996"><g><svg viewBox="0 0 244.43135999999996 74.42451152675073" height="74.42451152675073" width="244.43135999999996"><g><svg viewBox="0 0 244.43135999999996 74.42451152675073" height="74.42451152675073" width="244.43135999999996"><g><svg viewBox="0 0 244.43135999999996 74.42451152675073" height="74.42451152675073" width="244.43135999999996"><g><svg viewBox="0 0 244.43135999999996 74.42451152675073" height="74.42451152675073" width="244.43135999999996"><g><svg viewBox="0 0 244.43135999999996 74.42451152675073" height="74.42451152675073" width="244.43135999999996"><g transform="matrix(1,0,0,1,0,0)"><svg width="244.43135999999996" viewBox="5.699999809265137 -35 114.95000457763672 35" height="74.42451152675073" data-palette-color="#f71735"><path d="M5.7 0L5.7-35 19.95-35Q25.5-35 29.75-32.77 34-30.55 36.35-26.58 38.7-22.6 38.7-17.5L38.7-17.5Q38.7-12.4 36.35-8.43 34-4.45 29.75-2.23 25.5 0 19.95 0L19.95 0 5.7 0ZM9.4-3.2L19.75-3.2Q24.35-3.2 27.8-5.03 31.25-6.85 33.15-10.08 35.05-13.3 35.05-17.5L35.05-17.5Q35.05-21.7 33.15-24.93 31.25-28.15 27.8-29.98 24.35-31.8 19.75-31.8L19.75-31.8 9.4-31.8 9.4-3.2ZM72.6-35L76.25-35 76.25 0 73.2 0 50.7-28.4 50.7 0 47 0 47-35 50.05-35 72.6-6.6 72.6-35ZM87.65 0L87.65-35 101.9-35Q107.45-35 111.7-32.77 115.95-30.55 118.3-26.58 120.65-22.6 120.65-17.5L120.65-17.5Q120.65-12.4 118.3-8.43 115.95-4.45 111.7-2.23 107.45 0 101.9 0L101.9 0 87.65 0ZM91.35-3.2L101.7-3.2Q106.3-3.2 109.75-5.03 113.2-6.85 115.1-10.08 117-13.3 117-17.5L117-17.5Q117-21.7 115.1-24.93 113.2-28.15 109.75-29.98 106.3-31.8 101.7-31.8L101.7-31.8 91.35-31.8 91.35-3.2Z" opacity="1" transform="matrix(1,0,0,1,0,0)" fill="#f71735" class="undefined-text-0" data-fill-palette-color="primary" id="text-0"></path></svg></g></svg></g></svg></g></svg></g></svg></g></svg></g></svg></g><g><path d="M244.431 178.382A122.216 122.216 0 1 1 244.431 68.818L237.72 68.818A115.504 115.504 0 1 0 237.72 178.382L244.431 178.382" fill="#5c0029" stroke="transparent" data-fill-palette-color="tertiary"></path></g></svg></g></svg><rect width="395.52" height="247.2" fill="none" stroke="none" visibility="hidden"></rect></g></svg></g></svg>